<svg viewBox="0 0 153 180" xmlns="http://www.w3.org/2000/svg" class="w-full h-full p-6 text-white cursor-pointer fill-current"><path fill="white" d="M53.023 161.04c-15.454-6.074-28.905-17.473-37.327-33.276-18.778-35.237-5.436-79.027 29.802-97.805 34.318-18.289 76.747-6.111 96.285 27.086-9.254 21.45-24.019 44.116-43.523 65.213-14.389 15.563-29.831 28.623-45.237 38.782Z"></path><path fill="white" d="M3.368 178.128c-8.047-6.051-.282-26.133 9.765-39.764l3.11 4.391c-3.735 8.817-10.246 26.743 16.487 6.071 26.733-20.671 71.532-78.279 90.765-113.025 15.386-27.797-1.255-21.195-11.236-14.805l-4.377-2.354C118.023 8.816 135.69-3.019 144.145.701c18.34 8.07 4.683 60.555-36.56 111.448-41.243 50.893-92.864 74.517-104.217 65.979ZM151.388 85.902c3.109 28.51-11.029 57.352-37.887 71.664-9.137 4.87-18.849 7.579-28.55 8.307 9.349-17.428 21.953-35.311 37.431-52.316 9.346-10.268 19.11-19.524 29.006-27.655Z"></path></svg>